<svg xmlns="http://www.w3.org/2000/svg" viewBox="0 0 800 320" fill="none" aria-hidden="true">
  <defs>
    <linearGradient id="g4" x1="0" y1="0" x2="800" y2="320" gradientUnits="userSpaceOnUse">
      <stop stop-color="#fff7ed"/>
      <stop offset="1" stop-color="#ffedd5"/>
    </linearGradient>
  </defs>
  <rect width="800" height="320" fill="url(#g4)"/>
  <rect x="520" y="64" width="200" height="192" rx="16" fill="#fff" opacity=".55" stroke="#fb923c" stroke-width="2"/>
  <rect x="548" y="92" width="144" height="12" rx="6" fill="#fdba74" opacity=".7"/>
  <rect x="548" y="116" width="120" height="12" rx="6" fill="#fed7aa"/>
  <rect x="548" y="140" width="132" height="12" rx="6" fill="#fed7aa"/>
  <rect x="548" y="164" width="96" height="12" rx="6" fill="#fed7aa"/>
  <circle cx="640" cy="210" r="28" fill="#f97316" opacity=".2"/>
  <path d="M628 210l8 8 16-20" stroke="#ea580c" stroke-width="4" stroke-linecap="round" stroke-linejoin="round"/>
  <rect x="48" y="48" width="440" height="224" rx="20" fill="rgba(255,255,255,.82)" stroke="rgba(249,115,22,.35)" stroke-width="2"/>
  <text x="80" y="120" font-family="system-ui,sans-serif" font-size="28" font-weight="800" fill="#c2410c">&#31532;4&#22238;&#23450;&#20363;MTG</text>
  <text x="80" y="168" font-family="system-ui,sans-serif" font-size="20" fill="#64748b">&#12450;&#12531;&#12465;&#12540;&#12488;&#12392;&#38754;&#35527;&#21147;</text>
  <rect x="80" y="200" width="140" height="10" rx="5" fill="#f97316" opacity=".65"/>
  <rect x="240" y="200" width="100" height="10" rx="5" fill="#fb923c" opacity=".45"/>
  <rect x="360" y="200" width="80" height="10" rx="5" fill="#fdba74" opacity=".5"/>
</svg>
