<svg xmlns="http://www.w3.org/2000/svg" viewBox="0 0 800 320" fill="none" aria-hidden="true">
  <defs>
    <linearGradient id="g" x1="0" y1="0" x2="800" y2="320" gradientUnits="userSpaceOnUse">
      <stop stop-color="#fff7ed"/>
      <stop offset="1" stop-color="#e0f2fe"/>
    </linearGradient>
  </defs>
  <rect width="800" height="320" fill="url(#g)"/>
  <path d="M560 80c40 0 72 32 72 72s-32 72-72 72" stroke="#f59e0b" stroke-width="12" stroke-linecap="round" opacity=".35"/>
  <path d="M600 80c24 0 44 20 44 44s-20 44-44 44" stroke="#fb923c" stroke-width="10" stroke-linecap="round" opacity=".45"/>
  <path d="M632 80c8 0 16 8 16 16s-8 16-16 16" stroke="#f97316" stroke-width="8" stroke-linecap="round" opacity=".55"/>
  <rect x="48" y="56" width="420" height="200" rx="20" fill="rgba(255,255,255,.82)" stroke="rgba(251,191,36,.5)" stroke-width="2"/>
  <text x="80" y="132" font-family="system-ui,sans-serif" font-size="28" font-weight="800" fill="#c2410c">&#31532;2&#22238;&#23450;&#20363;MTG</text>
  <text x="80" y="180" font-family="system-ui,sans-serif" font-size="20" fill="#64748b">&#27963;&#21205;&#30330;&#20449;&#12398;&#26041;&#37341;</text>
  <rect x="80" y="210" width="140" height="10" rx="5" fill="#f59e0b" opacity=".7"/>
  <rect x="240" y="210" width="100" height="10" rx="5" fill="#0891b2" opacity=".35"/>
</svg>
